# xmcd CD database file
#
# Track frame offsets:
#	150
#	20305
#	76407
#	96713
#
# Disc length: 1372 seconds
#
# Revision: 1
# Processed by: cddbd v1.5.2PL0 Copyright (c) Steve Scherf et al.
# Submitted via: CDex 1.70beta2
#
DISCID=29055a04
DTITLE=市原仁奈(久野美咲) - THE IDOLM@STER CINDERELLA MASTER 035 市原仁奈
DYEAR=2015
DGENRE=Game
TTITLE0=みんなのきもち
TTITLE1=ドラマ「目指せ！シンデレラNO.1！ -市原仁奈編-」
TTITLE2=みんなのきもち　オリジナル・カラオケ
TTITLE3=ボーナス・トラック
EXTD=YEAR: 2015
EXTT0=
EXTT1=
EXTT2=
EXTT3=
PLAYORDER=
